# xmcd CD database file
#
# Track frame offsets:
#	150
#	22775
#	51887
#	67085
#	95237
#	123920
#	150532
#	173620
#	196372
#
# Disc length: 3098 seconds
#
# Revision: 2
# Processed by: cddbd v1.5.1PL2 Copyright (c) Steve Scherf et al.
# Submitted via: CDex 1.51
#
DISCID=710c1809
DTITLE=Etta James-Eddie "Cleanhead" Vinson - Blues In The Night
DYEAR=1986
DGENRE=Blues
TTITLE0=Kidney Stew
TTITLE1=When My Baby Left Me
TTITLE2=Railroad Porter Blues
TTITLE3=Something's Got a Hold on Me
TTITLE4=Medley - At Last /Trust Me - Sunday Kind of Love
TTITLE5=I Just Wanna Make Love to You
TTITLE6=Please Send Me Someone to Love
TTITLE7=Lover Man (Oh Where Can You Be)
TTITLE8=Misty
EXTD=Etta James - vocals\nEddie "Cleanhead" Vinson - vocals and alto sax\nRed Holloway - M.C., leader - alto, tenor,and baritone saxes\nJack Mc Duff- Hammond B-3\nShuggie Otis - guitar\nRichard Reid - accustic bass , bass guitar\nPaul Humphrey - drums YEA
EXTD=R: 1986
EXTT0=
EXTT1=
EXTT2=
EXTT3=
EXTT4=
EXTT5=
EXTT6=
EXTT7=
EXTT8=
PLAYORDER=
